<svg width="24.000000" height="20.000000" viewBox="0 0 24 20" fill="none" xmlns="http://www.w3.org/2000/svg" xmlns:xlink="http://www.w3.org/1999/xlink">
	<desc>
			Created with Pixso.
	</desc>
	<defs/>
	<path d="M12 0C5.37305 0 0 4.47667 0 10C0 14.2367 3.16309 17.855 7.62695 19.3117C7.52197 18.5208 7.427 17.3075 7.66895 16.4442C7.88696 15.6633 9.07593 11.4733 9.07593 11.4733C9.07593 11.4733 8.71704 10.8742 8.71704 9.98833C8.71704 8.59834 9.68408 7.56 10.8879 7.56C11.9109 7.56 12.406 8.20084 12.406 8.96833C12.406 9.82584 11.751 11.1083 11.4121 12.2975C11.1289 13.2925 12.011 14.105 13.189 14.105C15.322 14.105 16.9609 12.2308 16.9609 9.52583C16.9609 7.13167 14.897 5.4575 11.949 5.4575C8.53491 5.4575 6.53101 7.59167 6.53101 9.79667C6.53101 10.6558 6.92798 11.5783 7.42407 12.0783C7.52197 12.1775 7.53589 12.265 7.50708 12.3658L7.17407 13.4992C7.12109 13.6825 7 13.7217 6.77197 13.6333C5.27295 13.0517 4.33594 11.2258 4.33594 9.75917C4.33594 6.605 7.08594 3.7075 12.2649 3.7075C16.428 3.7075 19.6631 6.18 19.6631 9.48334C19.6631 12.93 17.0559 15.7033 13.436 15.7033C12.22 15.7033 11.0769 15.1775 10.686 14.555L9.93799 16.9325C9.66699 17.8017 8.93604 18.8908 8.44604 19.5542C9.57007 19.8433 10.7629 20 12 20C18.627 20 24 15.5225 24 10C24 4.47667 18.627 0 12 0Z" fill="#FFFFFF" fill-opacity="1.000000" fill-rule="nonzero"/>
</svg>
