<svg width="24.000000" height="19.000000" viewBox="0 0 24 19" fill="none" xmlns="http://www.w3.org/2000/svg" xmlns:xlink="http://www.w3.org/1999/xlink">
	<desc>
			Created with Pixso.
	</desc>
	<defs/>
	<path id="Path" d="M24 2.24934C23.1169 2.6312 22.168 2.88838 21.1721 3.00431C22.189 2.41104 22.97 1.47098 23.3369 0.3507C22.386 0.900124 21.332 1.29953 20.21 1.51482C19.313 0.58255 18.032 0 16.616 0C13.437 0 11.1011 2.88936 11.8191 5.88879C7.72803 5.68909 4.1001 3.77974 1.6709 0.877716C0.381104 3.03353 1.00195 5.85372 3.19409 7.28184C2.38794 7.25651 1.62793 7.04122 0.965088 6.68176C0.910889 8.90382 2.5459 10.9827 4.91406 11.4454C4.22095 11.6285 3.46191 11.6714 2.68994 11.5272C3.31592 13.4327 5.13403 14.8189 7.29004 14.8579C5.21997 16.4389 2.61206 17.1452 0 16.8452C2.17896 18.2061 4.76807 19 7.5481 19C16.6899 19 21.855 11.4785 21.543 4.73247C22.5049 4.05543 23.3401 3.21083 24 2.24934Z" fill="#FFFFFF" fill-opacity="1.000000" fill-rule="nonzero"/>
</svg>
