<svg width="24.000000" height="20.000000" viewBox="0 0 24 20" fill="none" xmlns="http://www.w3.org/2000/svg" xmlns:xlink="http://www.w3.org/1999/xlink">
	<desc>
			Created with Pixso.
	</desc>
	<defs/>
	<path id="Path" d="M22.675 0L1.32495 0C0.593018 0 0 0.494164 0 1.10416L0 18.8967C0 19.5058 0.593018 20 1.32495 20L12.8201 20L12.8201 12.255L9.69189 12.255L9.69189 9.23666L12.8201 9.23666L12.8201 7.01083C12.8201 4.4275 14.7129 3.02084 17.479 3.02084C18.804 3.02084 19.9419 3.10333 20.2739 3.14L20.2739 5.84L18.356 5.84084C16.8521 5.84084 16.561 6.43667 16.561 7.31L16.561 9.2375L20.1479 9.2375L19.6809 12.2558L16.561 12.2558L16.561 20L22.677 20C23.407 20 24 19.5058 24 18.8958L24 1.10416C24 0.494164 23.407 0 22.675 0Z" fill="#FFFFFF" fill-opacity="1.000000" fill-rule="nonzero"/>
</svg>
