<svg width="24.000000" height="19.629807" viewBox="0 0 24 19.6298" fill="none" xmlns="http://www.w3.org/2000/svg" xmlns:xlink="http://www.w3.org/1999/xlink">
	<desc>
			Created with Pixso.
	</desc>
	<defs/>
	<path id="Shape" d="M12 0C8.74097 0 8.33301 0.0114517 7.05298 0.0588913C2.69507 0.222473 0.272949 2.20017 0.072998 5.76789C0.013916 6.81564 0 7.14934 0 9.8149C0 12.4805 0.013916 12.815 0.0720215 13.8619C0.271973 17.4264 2.68994 19.4073 7.052 19.5709C8.33301 19.6184 8.74097 19.6298 12 19.6298C15.259 19.6298 15.668 19.6184 16.948 19.5709C21.302 19.4073 23.73 17.4296 23.927 13.8619C23.9861 12.815 24 12.4805 24 9.8149C24 7.14934 23.9861 6.81564 23.928 5.76871C23.7319 2.20753 21.311 0.223289 16.949 0.0597076C15.668 0.0114517 15.259 0 12 0ZM16.8501 1.82639C15.5842 1.77895 15.2041 1.76913 12 1.76913C8.79614 1.76913 8.41699 1.77895 7.15112 1.82556C3.896 1.94662 2.3811 3.20947 2.23218 5.84885C2.17505 6.88433 2.16211 7.19431 2.16211 9.8149C2.16211 12.4363 2.17407 12.7463 2.23218 13.7809C2.38013 16.4154 3.89111 17.6832 7.15112 17.805C8.41602 17.8525 8.79614 17.8623 12 17.8623C15.2061 17.8623 15.5842 17.8525 16.8501 17.805C20.1052 17.684 21.6201 16.4195 21.769 13.7818C21.8262 12.7471 21.8381 12.4371 21.8381 9.81571C21.8381 7.19514 21.8271 6.88433 21.769 5.84968C21.6211 3.20947 20.1021 1.94743 16.8501 1.82639ZM16.9651 4.57621C16.9651 3.92597 17.6101 3.39841 18.406 3.39841C19.2012 3.39841 19.845 3.92597 19.845 4.57621C19.845 5.22644 19.2012 5.754 18.406 5.754C17.6101 5.754 16.9651 5.22644 16.9651 4.57621ZM5.83789 9.8149C5.83789 7.03156 8.59692 4.77495 12 4.77495C15.4028 4.77495 18.1619 7.03156 18.1619 9.8149C18.1619 12.5991 15.4028 14.8557 12 14.8557C8.59692 14.8557 5.83789 12.5982 5.83789 9.8149ZM12 13.0865C9.79102 13.0865 8 11.6225 8 9.81491C8 8.00815 9.79102 6.54327 12 6.54327C14.209 6.54327 16 8.00815 16 9.81491C16 11.6225 14.209 13.0865 12 13.0865Z" clip-rule="evenodd" fill="#FFFFFF" fill-opacity="1.000000" fill-rule="evenodd"/>
</svg>
