<svg width="120.042725" height="29.000015" viewBox="0 0 120.043 29" fill="none" xmlns="http://www.w3.org/2000/svg" xmlns:xlink="http://www.w3.org/1999/xlink">
	<desc>
			Created with Pixso.
	</desc>
	<defs/>
	<path id="Shortly" d="M16.1841 6.88034C16.116 6.79987 15.8779 6.64899 15.47 6.42769C15.062 6.20639 14.552 5.97504 13.9399 5.73362C13.3279 5.4922 12.6594 5.28097 11.9341 5.0999C11.2087 4.91884 10.4834 4.82831 9.75806 4.82831C7.76343 4.82831 6.76611 5.42178 6.76611 6.60875C6.76611 6.97087 6.87378 7.27264 7.08911 7.51405C7.30444 7.75547 7.62158 7.97173 8.04102 8.16286C8.46045 8.35398 8.9873 8.53001 9.62207 8.69096L11.0273 9.03967C11.2842 9.10226 11.5525 9.16708 11.832 9.23414C12.988 9.51579 14.0308 9.82259 14.96 10.1545C15.8894 10.4865 16.677 10.8989 17.323 11.3918C17.969 11.8847 18.4678 12.4832 18.8191 13.1873C19.1704 13.8914 19.3459 14.7364 19.3459 15.7222C19.3459 16.9293 19.0911 17.9502 18.5811 18.7851C18.071 19.62 17.3967 20.294 16.5581 20.807C15.7192 21.32 14.7561 21.6922 13.668 21.9235C12.5801 22.1549 11.458 22.2706 10.302 22.2706C9.41797 22.2706 8.51123 22.2102 7.58203 22.0895C6.65259 21.9688 5.74609 21.7928 4.86206 21.5614C3.97803 21.33 3.12231 21.0534 2.29492 20.7315C1.46777 20.4096 0.702637 20.0375 0 19.615L2.448 15.2997C2.53857 15.4003 2.83325 15.5914 3.33203 15.8731C3.83057 16.1547 4.44824 16.4364 5.18506 16.718C5.92163 16.9997 6.74341 17.2511 7.6499 17.4724C8.55664 17.6937 9.47461 17.8044 10.4041 17.8044C12.376 17.8044 13.3621 17.2713 13.3621 16.205C13.3621 15.8026 13.2146 15.4707 12.9199 15.2092C12.6252 14.9476 12.2173 14.7112 11.696 14.5C11.2615 14.324 10.7603 14.1584 10.1919 14.0033L8.49048 13.5639C8.17505 13.4818 7.84937 13.3965 7.51392 13.308C6.40332 13.0062 5.43994 12.6793 4.62402 12.3273C3.80811 11.9752 3.13379 11.5678 2.60107 11.1051C2.06836 10.6424 1.67163 10.1093 1.41089 9.50573C1.15039 8.90219 1.02002 8.19807 1.02002 7.39335C1.02002 6.26674 1.25806 5.27091 1.73389 4.40583C2.20996 3.54076 2.85596 2.81149 3.67212 2.21801C4.48804 1.62453 5.43433 1.17691 6.51099 0.875137C7.58765 0.573364 8.72656 0.422485 9.92798 0.422485C10.7666 0.422485 11.594 0.492889 12.4099 0.633728C13.2261 0.774551 14.0081 0.955612 14.7561 1.17691C15.5039 1.39821 16.2009 1.64967 16.8469 1.93134C17.4929 2.21298 18.0879 2.49463 18.6321 2.77628L16.1841 6.88034ZM39.6082 22.0291L34.1682 22.0291L34.1682 13.127C34.1682 12.1009 33.9414 11.3465 33.488 10.8637C33.0347 10.3809 32.4114 10.1394 31.6182 10.1394C31.3008 10.1394 30.9551 10.2048 30.5811 10.3356C30.207 10.4664 29.8445 10.6575 29.4932 10.909C29.1418 11.1604 28.8188 11.4572 28.5242 11.7992C28.2295 12.1412 28.0027 12.5234 27.844 12.9459L27.844 22.0291L22.4041 22.0291L22.4041 0L27.844 0L27.844 8.84184C28.5015 7.89629 29.3684 7.16702 30.4451 6.65401C31.5217 6.141 32.7061 5.8845 33.998 5.8845C35.1995 5.8845 36.1685 6.07059 36.905 6.44276C37.6418 6.81495 38.2085 7.28772 38.6052 7.86108C39.0017 8.43445 39.2681 9.07822 39.4041 9.7924C39.54 10.5066 39.6082 11.2057 39.6082 11.8897L39.6082 22.0291ZM51.9482 22.3309C50.4297 22.3309 49.0752 22.1096 47.8853 21.667C46.6953 21.2244 45.6924 20.6259 44.8762 19.8715C44.0603 19.1171 43.4426 18.242 43.0232 17.2461C42.604 16.2503 42.3943 15.2092 42.3943 14.1228C42.3943 13.0364 42.604 11.9953 43.0232 10.9995C43.4426 10.0037 44.0603 9.12854 44.8762 8.37411C45.6924 7.61969 46.6953 7.01615 47.8853 6.5635C49.0752 6.11084 50.4297 5.88452 51.9482 5.88452C53.467 5.88452 54.8157 6.11084 55.9944 6.5635C57.1729 7.01615 58.1702 7.61969 58.9863 8.37411C59.8022 9.12854 60.4255 10.0037 60.8562 10.9995C61.2869 11.9953 61.5022 13.0364 61.5022 14.1228C61.5022 15.2092 61.2927 16.2503 60.8733 17.2461C60.4539 18.242 59.8362 19.1171 59.0203 19.8715C58.2043 20.6259 57.2012 21.2244 56.0112 21.667C54.8213 22.1096 53.467 22.3309 51.9482 22.3309ZM49.0923 17.1254C48.3442 16.371 47.9702 15.3701 47.9702 14.1228C47.9702 13.5193 48.0723 12.961 48.2761 12.448C48.4802 11.935 48.7578 11.4974 49.1091 11.1353C49.4604 10.7732 49.8799 10.4915 50.3672 10.2903C50.8545 10.0892 51.3816 9.98857 51.9482 9.98857C53.0815 9.98857 54.0222 10.3658 54.7703 11.1202C55.5183 11.8746 55.8923 12.8755 55.8923 14.1228C55.8923 14.7263 55.7903 15.2846 55.5862 15.7976C55.3823 16.3106 55.1045 16.7482 54.7532 17.1103C54.4019 17.4724 53.9883 17.7541 53.5122 17.9553C53.0361 18.1565 52.5149 18.257 51.9482 18.257C50.7922 18.257 49.8403 17.8798 49.0923 17.1254ZM75.7463 10.3205C74.4316 10.3406 73.2417 10.5318 72.1763 10.8939C71.1111 11.256 70.3403 11.7992 69.8643 12.5234L69.8643 22.0292L64.4243 22.0292L64.4243 6.18628L69.4224 6.18628L69.4224 9.38503C70.0344 8.31878 70.822 7.48389 71.7854 6.88035C72.7485 6.27681 73.7744 5.96498 74.8623 5.94487L75.4062 5.94487C75.5195 5.94487 75.6331 5.95493 75.7463 5.97504L75.7463 10.3205ZM89.8206 21.1842C89.0725 21.4658 88.2168 21.7274 87.2534 21.9688C86.29 22.2102 85.3213 22.3309 84.3464 22.3309C83.6665 22.3309 83.0261 22.2555 82.4255 22.1046C81.8247 21.9537 81.2979 21.7123 80.8445 21.3803C80.3911 21.0484 80.0342 20.6108 79.7734 20.0676C79.5129 19.5245 79.3826 18.8706 79.3826 18.1061L79.3826 9.83768L77.1045 9.83768L77.1045 6.18627L79.3826 6.18627L79.3826 1.14673L84.8225 1.14673L84.8225 6.18627L88.4604 6.18627L88.4604 9.83768L84.8225 9.83768L84.8225 16.4464C84.8225 16.9695 84.9697 17.3467 85.2644 17.578C85.5591 17.8094 85.9331 17.9251 86.3865 17.9251C86.7944 17.9251 87.2139 17.8647 87.6445 17.744C88.0752 17.6233 88.4492 17.4925 88.7666 17.3517L89.8206 21.1842ZM92.0967 0L97.5366 0L97.5366 16.3861C97.5366 17.5931 98.1145 18.1967 99.2705 18.1967C99.5425 18.1967 99.8428 18.1615 100.172 18.091C100.5 18.0206 100.801 17.915 101.073 17.7742L101.787 21.3954C101.106 21.6771 100.324 21.8984 99.4407 22.0593C98.5566 22.2203 97.7292 22.3007 96.9585 22.3007C95.3945 22.3007 94.1931 21.9386 93.3545 21.2144C92.5159 20.4901 92.0967 19.444 92.0967 18.076L92.0967 0ZM103.553 24.4131C104.006 24.554 104.431 24.6545 104.828 24.7149C105.224 24.7753 105.581 24.8054 105.899 24.8054C106.556 24.8054 107.066 24.6042 107.429 24.2019C107.792 23.7995 108.12 23.0753 108.415 22.0292L101.615 6.18628L107.225 6.18628L111.373 17.8949L114.943 6.18628L120.043 6.18628L113.243 24.5942C112.767 25.9019 111.917 26.9631 110.693 27.7778C109.469 28.5926 108.018 29 106.341 29C105.887 29 105.428 28.9648 104.964 28.8944C104.499 28.824 104.029 28.7083 103.553 28.5474L103.553 24.4131Z" clip-rule="evenodd" fill="#FFFFFF" fill-opacity="1.000000" fill-rule="evenodd"/>
</svg>
